<?xml version="1.0" encoding="utf-8"?>
<!-- Generator: Adobe Illustrator 23.0.1, SVG Export Plug-In . SVG Version: 6.00 Build 0)  -->
<svg version="1.1" id="Capa_1" xmlns="http://www.w3.org/2000/svg" xmlns:xlink="http://www.w3.org/1999/xlink" x="0px" y="0px"
	 viewBox="0 0 400 300" style="enable-background:new 0 0 400 300;" xml:space="preserve">
<style type="text/css">
	.st0{fill:blue;}
	.st1{fill:red;}
	.st2{fill:none;stroke:#ED624A;stroke-miterlimit:10;}
</style>
<g>
	<rect x="0" y="0" class="st0" width="108" height="308"/>
</g>
<circle class="st1" cx="314" cy="211" r="111"/>
<path class="st2" d="M103,132.7c-9.2-20.7-1.9-46.3,13.8-62.7s38.2-24.8,60.6-28.3c18.6-2.9,42,0,49.2,17.3
	c5.1,12.1-0.4,25.9-6.7,37.4c-26.9,48.9-71.2,87.9-123.2,108.3c-11.2,4.4-25.2,11.7-23.4,23.6c1.2,8.1,9.6,13,17.3,15.8
	c43.5,16,95.8,4,128.1-29.2s42.5-86,25.1-128.9c22.7-2.8,47.2,2.8,63.4,18.9s21.9,43.3,9.7,62.6c-8.5,13.5-23.6,21.1-38.2,27.4
	s-30.1,12-41.2,23.4s-16.4,30.5-7.1,43.4c6.5,9.1,18.2,12.8,29.3,13.8c39,3.4,78.4-24.3,88.5-62.1c2.7-10.3,3.4-21.5-0.2-31.6
	s-12.3-18.7-22.9-20.3c-11.7-1.8-23.5,5.3-30,15.2c-6.4,10-8.3,22.2-8.1,34.1c0.1,10.8,1.5,22.5-4.2,31.7
	c-5.2,8.5-15.6,12.8-25.6,13.3c-10,0.5-19.8-2.2-29.4-4.9c-20.9-5.8-44.5-14-52.5-34.1c-6.9-17.5,1-37.4,12.3-52.5
	c19.1-25.4,47.5-42.8,77.8-52.4c30.3-9.6,62.5-11.8,94.2-10.9c9,0.3,20.6-0.9,23.1-9.6c1.4-4.8-0.9-9.8-3.4-14.1
	c-22.5-38.5-69.3-61.3-113.5-55.2s-83,40.7-94.2,83.9c-5.9,22.8-3,50.3,15.5,64.7c16.5,12.8,39.6,11.5,60.2,7.9
	c24.7-4.2,52.9-14.3,59.7-38.4c5.9-20.7-7.2-41.7-21.6-57.7c-20-22.4-44.3-41.7-72.6-51.7s-61-10-87.4,4.3s-45,43.9-42.1,73.8
	c12.5,9.4,31.8,7,42.8-4s13.7-29.1,7.7-43.5s-19.6-25-34.7-29c-8.4-2.2-17.6-2.4-25.5,1.2S59.4,45.1,59.4,53.8
	C71.3,50.9,76.5,34.5,70,24.2c-6.5-10.4-21.4-13.5-32.6-8.7s-18.9,16-21.8,27.9s-1.7,24.4,0.7,36.4c6.6,33,25.2,66.9,57.1,77.6
	c1.2-5.7-2.1-11.9-7.4-14.1C50.4,173.5,55,212.9,77,238.7c4.9-19.1,9.8-39.5,3.5-58.2s-28.7-33.2-46.1-24
	C20,164.2,16.3,183,15.6,199.3c-0.5,10.8-0.3,22,3.2,32.2s11.1,19.6,21.5,23c20.6,6.6,42.1-15.5,40.8-37.1s-18.5-39.3-37.8-49
	c-8.2,17.9-16.5,36-19.2,55.5s0.9,40.7,14.1,55.3s37.2,19.8,53.2,8.4c16-11.5,16.5-40.2-1-49.2c-13.8,25.9,3.1,62.8,31.7,69.2
	c28.6,6.4,59.7-19.7,58.2-49c-5.7,1.9-6.1,10.6-2.1,15c4,4.4,10.4,5.7,16.3,6.7c10,1.7,21.4,3.1,29.5-3.2s5.9-23-4.3-22.8
	c8.3,24.3,28.7,44.2,53.2,51.9c10.9,3.4,24.9,3.6,31.5-5.7c7.8-11,0-25.9-7.8-37C298,275.7,310.6,285,323,285
	c12.4,0,23.9-7.9,30.9-18.1c7-10.2,10.2-22.6,12.1-34.9c6.8-43.9-3.3-92.3-34.9-123.5c-4.5,19.1,3,40.6,18.6,52.6
	c10.4-27.3,7.5-59.3-7.5-84.3c-2.5,5.9,3.5,12.9,9.9,13.1c6.5,0.2,12.2-4.5,15.6-9.9c11.5-18.1,2.1-43.9-15.4-56.3
	s-40.4-14.1-61.8-12.4c-20.5,1.6-40.9,6.1-59.8,14.2c-9,3.9-18.3,9.1-22.5,18c-5.6,11.6-0.5,26.1,8.7,35.1
	c9.1,9.1,21.5,14,33.5,18.6c-8.1-28.7-42.7-46.5-70.9-36.9s-44.9,44.1-35.4,72.4c9.5,28.3,42.9,45.8,71.7,38.2
	c-8-19.2-32.6-29.5-51.8-21.7s-29.8,32.2-22.3,51.6c-13.2-2.9-27.7,1.7-36.9,11.6c10.9-1.8,19-11.9,21.6-22.6
	c2.6-10.7,0.6-22-2.4-32.7c-4.6-16.8-11.5-33-20.5-47.9c-4.8-8-11.6-16.5-21-16.6c-8.1-0.1-15.1,6.9-17.4,14.7
	c-2.3,7.8-0.9,16.2,1.2,24.1c2.3,8.4,5.5,16.9,11.8,23c6.3,6.1,16.2,9.1,24,5.3c10.1-4.9,12.5-18.2,11.7-29.4
	c-2-25.9-15.4-50.7-36.1-66.4c-13.9-10.6-36.3-16-47.4-2.4c-7.5,9.3-5.7,23.5,1.1,33.4s17.4,16.2,27.7,22.2
	c0.2-16.2-5.3-32.4-15.4-45c-2.4-3.1-5.7-6.1-9.6-5.9c-4.9,0.3-7.7,5.5-9.4,10.1c-11.8,33.3-6.5,72.1,13.6,101.2
	c1.3-8.9-4-18.4-12.3-21.9c-1.9,26.5,9.8,53.5,30.4,70.3s49.4,22.8,75,15.6c8-2.2,16-5.9,21.3-12.3s7.4-16,3.2-23.3
	c-7.2,11-4.3,27.4,6.3,35.2c10.6,7.8,27.1,5.7,35.4-4.4c-1.1-11.8-10.5-22.3-22.1-24.6c10.3,23.1,39.8,31.6,64.7,27.8
	c39.9-6.1,74.5-38.5,83.2-78s-9.3-83.4-43-105.6c-2,6.7-4,13.7-2.3,20.4c1.6,6.7,8.4,12.8,15.1,11c10.4-2.7,9.3-18.1,4.7-27.8
	c-25.4-54.1-85.8-89.5-145.4-85.4c1.2,9.2,5.3,18,11.4,25c-31.2-14.5-67.4-18-100.7-9.7C70.2,9.6,90,24.1,111,25
	c-1.4-9.3-17.1-9.6-21.2-1.1s1.8,19,10.1,23.5s18.2,4.4,27.6,4.2c-3.9-5.8-8.1-11.8-14-15.5S99,31.5,93.7,36.2
	c-5.5,4.8-5.7,13.6-2.4,20.1c3.3,6.5,9.3,11.1,15.1,15.5c61.8,45.6,131.3,80.2,203.8,105.6"/>
</svg>
